<svg width="24" height="24" viewBox="0 0 24 24" fill="none" xmlns="http://www.w3.org/2000/svg">
<path d="M17.4692 13.5304C17.1763 13.2375 17.1763 12.7626 17.4692 12.4697L17.9692 11.9697C19.6093 10.3296 19.6093 7.67047 17.9692 6.03037C16.3291 4.39027 13.67 4.39027 12.0299 6.03037L11.5299 6.53037C11.237 6.82326 10.7621 6.82326 10.4692 6.53037C10.1763 6.23748 10.1763 5.7626 10.4692 5.46971L10.9692 4.96971C13.1951 2.74382 16.804 2.74382 19.0299 4.96971C21.2558 7.1956 21.2558 10.8045 19.0299 13.0304L18.5299 13.5304C18.237 13.8233 17.7621 13.8233 17.4692 13.5304Z" fill="white"/>
<path d="M6.52988 10.4697C6.82278 10.7626 6.82278 11.2375 6.52988 11.5304L6.02988 12.0304C4.38978 13.6705 4.38978 16.3296 6.02988 17.9697C7.66999 19.6098 10.3291 19.6098 11.9692 17.9697L12.4692 17.4697C12.7621 17.1768 13.237 17.1768 13.5299 17.4697C13.8228 17.7626 13.8228 18.2375 13.5299 18.5304L13.0299 19.0304C10.804 21.2563 7.19511 21.2563 4.96922 19.0304C2.74333 16.8045 2.74333 13.1956 4.96922 10.9697L5.46922 10.4697C5.76212 10.1768 6.23699 10.1768 6.52988 10.4697Z" fill="white"/>
<path d="M5.52988 4.46971C5.23699 4.17682 4.76212 4.17682 4.46922 4.46971C4.17633 4.7626 4.17633 5.23748 4.46922 5.53037L18.4692 19.5304C18.7621 19.8233 19.237 19.8233 19.5299 19.5304C19.8228 19.2375 19.8228 18.7626 19.5299 18.4697L5.52988 4.46971Z" fill="white"/>
</svg>
